<?xml version="1.0" standalone="no"?>
<!DOCTYPE svg PUBLIC "-//W3C//DTD SVG 20010904//EN"
 "http://www.w3.org/TR/2001/REC-SVG-20010904/DTD/svg10.dtd">
<svg version="1.0" xmlns="http://www.w3.org/2000/svg"
 width="192.000000pt" height="192.000000pt" viewBox="0 0 192.000000 192.000000"
 preserveAspectRatio="xMidYMid meet">
<metadata>
Created by potrace 1.11, written by Peter Selinger 2001-2013
</metadata>
<g transform="translate(0.000000,192.000000) scale(0.100000,-0.100000)"
fill="#000000" stroke="none">
<path d="M460 963 l0 -598 358 1 c196 0 373 4 392 8 95 22 173 85 216 173 49
100 33 246 -37 334 -32 40 -126 102 -141 93 -4 -3 -8 -1 -8 3 0 5 16 15 36 22
55 20 118 89 138 149 52 154 -10 304 -152 374 l-67 33 -367 3 -368 3 0 -598z
m662 352 c78 -59 58 -195 -34 -224 -19 -6 -107 -9 -203 -8 l-170 2 -1 120 c0
66 1 124 4 128 2 5 88 7 190 5 169 -3 190 -5 214 -23z m-5 -472 c51 -25 77
-64 77 -115 0 -56 -21 -97 -63 -122 -30 -17 -54 -20 -218 -21 -101 0 -187 2
-191 5 -14 9 -9 264 5 270 7 3 89 4 182 3 144 -1 176 -4 208 -20z"/>
</g>
</svg>
